<?xml version="1.0" encoding="UTF-8" standalone="no"?>
<!-- Created with Inkscape (http://www.inkscape.org/) -->

<svg
   version="1.1"
   id="svg2"
   xml:space="preserve"
   width="5556"
   height="5556"
   viewBox="0 0 5556 5556"
   sodipodi:docname="vecteezy_vector-illustration-of-book-icon-free-vector_.eps"
   xmlns:inkscape="http://www.inkscape.org/namespaces/inkscape"
   xmlns:sodipodi="http://sodipodi.sourceforge.net/DTD/sodipodi-0.dtd"
   xmlns="http://www.w3.org/2000/svg"
   xmlns:svg="http://www.w3.org/2000/svg"><defs
     id="defs6" /><sodipodi:namedview
     id="namedview4"
     pagecolor="#ffffff"
     bordercolor="#666666"
     borderopacity="1.0"
     inkscape:pageshadow="2"
     inkscape:pageopacity="0.0"
     inkscape:pagecheckerboard="0" /><g
     id="g8"
     inkscape:groupmode="layer"
     inkscape:label="ink_ext_XXXXXX"
     transform="matrix(1.3333333,0,0,-1.3333333,0,5556)"><g
       id="g10"
       transform="scale(0.1)"><path
         d="M 41670,0 H 0 V 41670 H 41670 V 0"
         style="fill:#ffffff;fill-opacity:1;fill-rule:nonzero;stroke:none"
         id="path12" /><path
         d="m 32873.1,12470.1 c -752,35.5 -2201.6,71.9 -3954.3,-43.6 -1607.1,-105.9 -3076.1,-310.5 -4399.3,-611.7 1148.1,480.6 2280.5,795.3 3224.1,999.2 2130.4,460.2 3795.1,475 3811.4,475.1 280.7,1.3 507.6,213.5 507.6,474.7 v 13989 h 810.5 z m -24492.58,0 v 15282.7 h 810.5 v -13989 c 0,-261.2 226.87,-473.4 507.67,-474.7 48.31,-0.2 3604.81,-39.4 7041.51,-1475.8 -1324.8,302.1 -2795.8,507.2 -4405.4,613.2 -1752.8,115.5 -3202.29,79.1 -3954.28,43.6 z m 1830.98,16182.7 h 896.9 V 15515.6 c 0,-249.8 207.9,-456.8 475.8,-473.7 2814.7,-177.1 5115.4,-1119.6 6838.2,-2801.4 115.6,-112.8 224.3,-225.4 327,-336.8 -1738.4,977.8 -3593.5,1531.1 -5033.8,1840.6 -1540.5,330.9 -2828.4,440.3 -3504.1,476.5 z m 1917.4,1771.8 c 625.7,-83.4 1727.5,-281.7 2944.7,-735.5 2377.5,-886.4 4059.9,-2290.3 5005.5,-4174.9 -3.4,-22.1 -5.7,-44.4 -5.7,-66.9 V 11871.5 c -242.9,314.8 -532.7,650 -876.2,988.7 -1256.9,1239.4 -3488.6,2753.7 -7068.3,3091.6 z m 14022,-746.4 c 1223.6,459.6 2341.4,661.1 2973.9,745.8 V 15951.8 c -3579.8,-337.9 -5811.5,-1852.2 -7068.3,-3091.6 -343.5,-338.7 -633.3,-673.9 -876.2,-988.7 v 13575.8 c 0,22.5 -2.4,44.8 -5.8,67 941.5,1876.5 2614.1,3276.5 4976.4,4163.9 z m 4891.2,-1025.4 v -14432 c -675.6,-36.2 -1963.6,-145.6 -3504.1,-476.5 -1440.3,-309.5 -3295.3,-862.8 -5033.8,-1840.7 93.1,101 190.8,202.7 294.6,305.1 1725.6,1701.7 4037.2,2654.9 6870.7,2833.2 267.8,16.9 475.8,223.9 475.8,473.7 v 13137.2 z m 2341.3,49.4 h -1320.8 v 425.3 c 0,262.2 -228.4,474.7 -510.2,474.7 h -1407.1 v 1353.1 c 0,130.7 -58,255.7 -160.2,345.3 -102.2,89.8 -240,136.1 -379.9,128.6 -71.8,-3.9 -1781.7,-104.5 -3804.7,-858.8 -2305.1,-859.3 -4073.1,-2226.3 -5173.7,-3986 -1100.6,1759.7 -2868.6,3126.7 -5173.6,3986 -2023,754.3 -3732.9,854.9 -3804.7,858.8 -140.3,7.5 -277.8,-38.8 -380,-128.6 -102.2,-89.6 -160.1,-214.6 -160.1,-345.3 V 29602.2 H 9701.28 c -281.82,0 -510.26,-212.5 -510.26,-474.7 v -425.3 H 7870.26 c -281.81,0 -510.26,-212.5 -510.26,-474.7 V 11963.9 c 0,-133 60.06,-260 165.46,-349.9 105.39,-89.9 246.44,-134.3 389.08,-123 74.82,6 7537.56,576 12227.06,-1888.8 1.6,-0.9 3.2,-1.7 4.8,-2.5 22.9,-11.7 45.7,-24.2 68.5,-36.5 9.2,-9 18.8,-17.6 28.8,-25.9 24.2,-22.2 50.1,-43.1 79.3,-60.7 84.4,-51 181.1,-76.6 277.9,-76.6 8.7,0 17.3,1.2 25.9,1.6 8.7,-0.4 17.3,-1.6 25.9,-1.6 96.8,0 193.5,25.6 277.9,76.6 29.2,17.6 55.1,38.5 79.3,60.7 10,8.3 19.6,16.9 28.9,25.9 22.8,12.3 45.5,24.8 68.4,36.5 1.6,0.8 3.2,1.6 4.8,2.5 4689.6,2464.9 12152.3,1894.9 12227,1888.8 142.6,-11.7 283.7,33 389.1,122.9 105.5,90 165.5,216.9 165.5,350 v 16263.6 c 0,262.2 -228.4,474.7 -510.2,474.7"
         style="fill:#28292a;fill-opacity:1;fill-rule:nonzero;stroke:none"
         id="path14" /></g></g></svg>
